<svg width="127" height="127" viewBox="0 0 127 127" fill="none" xmlns="http://www.w3.org/2000/svg">
<path d="M97.2344 0H29.7656C13.3265 0 0 13.3265 0 29.7656V97.2344C0 113.673 13.3265 127 29.7656 127H97.2344C113.673 127 127 113.673 127 97.2344V29.7656C127 13.3265 113.673 0 97.2344 0Z" fill="#0277BD"/>
<path d="M26.6665 50.9245L28.0863 66.7708H63.5476V50.9245H26.6665ZM63.5471 18.8516H23.8125L25.2532 34.6978H63.5471V18.8516ZM63.5471 108.566V92.079L63.4776 92.0973L45.8296 87.3323L44.7015 74.6939H28.7943L31.0143 99.575L63.4742 108.586L63.5471 108.566Z" fill="#EBEBEB"/>
<path d="M83.0054 66.7707L81.1659 87.3219L63.4926 92.0924V108.578L95.9783 99.5749L96.2164 96.8975L99.9401 55.18L100.327 50.9245L103.187 18.8516H63.4926V34.6978H85.8212L84.3796 50.9245H63.4926V66.7707H83.0054Z" fill="white"/>
</svg>
