<svg width="127" height="127" viewBox="0 0 127 127" fill="none" xmlns="http://www.w3.org/2000/svg">
<path d="M97.2344 0H29.7656C13.3265 0 0 13.3265 0 29.7656V97.2344C0 113.673 13.3265 127 29.7656 127H97.2344C113.673 127 127 113.673 127 97.2344V29.7656C127 13.3265 113.673 0 97.2344 0Z" fill="#E14E1D"/>
<path d="M23.8125 18.8516L28.0839 66.7708H83.0064L81.1634 87.3239L63.4797 92.1053L45.8291 87.3309L44.6489 74.1338H28.7437L31.0183 99.574L63.4762 108.589L95.9753 99.574L100.332 50.9265H42.5767L41.1267 34.6993H101.768L103.188 18.8516H23.8125Z" fill="white"/>
<path d="M63.5 18.8516H23.8125L28.0839 66.7708H63.5V50.9265H42.5767L41.1267 34.6993H63.5V18.8516ZM63.5 92.0983L63.4797 92.1053L45.8291 87.3309L44.6489 74.1338H28.7437L31.0183 99.574L63.4762 108.589L63.5005 108.582V92.0983H63.5Z" fill="#EBEBEB"/>
</svg>
