<svg width="127" height="127" viewBox="0 0 127 127" fill="none" xmlns="http://www.w3.org/2000/svg">
<path d="M97.2344 0H29.7656C13.3265 0 0 13.3265 0 29.7656V97.2344C0 113.673 13.3265 127 29.7656 127H97.2344C113.673 127 127 113.673 127 97.2344V29.7656C127 13.3265 113.673 0 97.2344 0Z" fill="#F0DB4F"/>
<path d="M33.3931 106.13L43.1116 100.248C44.9868 103.573 46.6924 106.386 50.7836 106.386C54.7053 106.386 57.1778 104.852 57.1778 98.8847V58.3052H69.1128V99.0533C69.1128 111.415 61.8669 117.041 51.2951 117.041C41.7478 117.041 36.2059 112.097 33.3926 106.129M75.5953 104.851L85.3128 99.225C87.8711 103.403 91.1959 106.471 97.0776 106.471C102.023 106.471 105.176 103.999 105.176 100.589C105.176 96.497 101.937 95.0474 96.4808 92.6612L93.4978 91.3817C84.8871 87.7166 79.1751 83.1129 79.1751 73.3944C79.1751 64.4429 85.9954 57.6226 96.652 57.6226C104.239 57.6226 109.695 60.2657 113.616 67.1709L104.324 73.1384C102.278 69.4728 100.062 68.0237 96.652 68.0237C93.1565 68.0237 90.94 70.2402 90.94 73.1384C90.94 76.7187 93.1565 78.1683 98.2712 80.3853L101.255 81.6638C111.399 86.012 117.111 90.4441 117.111 100.418C117.111 111.161 108.672 117.042 97.3336 117.042C86.2514 117.042 79.0903 111.757 75.5953 104.851Z" fill="#323330"/>
</svg>
