<svg width="127" height="127" viewBox="0 0 127 127" fill="none" xmlns="http://www.w3.org/2000/svg">
<path d="M97.2344 0H29.7656C13.3265 0 0 13.3265 0 29.7656V97.2344C0 113.673 13.3265 127 29.7656 127H97.2344C113.673 127 127 113.673 127 97.2344V29.7656C127 13.3265 113.673 0 97.2344 0Z" fill="#F4F2ED"/>
<path d="M63.5004 72.9015C68.6121 72.9015 72.7555 68.7576 72.7555 63.6464C72.7555 58.5351 68.6121 54.3912 63.5004 54.3912C58.3891 54.3912 54.2452 58.5351 54.2452 63.6464C54.2452 68.7576 58.3891 72.9015 63.5004 72.9015Z" fill="#00D8FF"/>
<path d="M63.501 44.8286C75.9271 44.8286 87.4708 46.6115 96.1747 49.6084C106.662 53.2185 113.109 58.6909 113.109 63.6464C113.109 68.8102 106.276 74.6239 95.0144 78.3551C86.5004 81.1759 75.2966 82.6483 63.501 82.6483C51.4072 82.6483 39.9549 81.2661 31.3447 78.3238C20.4515 74.6006 13.8906 68.712 13.8906 63.6464C13.8906 58.7311 20.0471 53.3008 30.3867 49.6962C39.1229 46.6502 50.9513 44.8286 63.499 44.8286H63.501Z" stroke="#00D8FF" stroke-width="8.911"/>
<path d="M47.1196 54.2915C53.3277 43.5273 60.6386 34.418 67.5829 28.3756C75.9491 21.0944 83.9114 18.2428 88.2036 20.7179C92.6769 23.2975 94.2996 32.1221 91.9059 43.7416C90.0977 52.5259 85.7747 62.9667 79.8816 73.1852C73.8397 83.6617 66.9216 92.8921 60.0721 98.8789C51.4048 106.455 43.0253 109.197 38.6374 106.667C34.3794 104.213 32.7512 96.1658 34.7941 85.408C36.52 76.3181 40.8514 65.1614 47.1176 54.2915H47.1196Z" stroke="#00D8FF" stroke-width="8.911"/>
<path d="M47.1349 73.2126C40.9094 62.4602 36.6708 51.5749 34.9017 42.5411C32.772 31.6563 34.2776 23.3343 38.5664 20.8519C43.0357 18.2642 51.4906 21.2656 60.3617 29.1426C67.0689 35.0977 73.9562 44.0556 79.8662 54.2643C85.9255 64.7308 90.4667 75.3348 92.2333 84.2586C94.4687 95.5517 92.6594 104.18 88.2755 106.718C84.0219 109.18 76.2377 106.573 67.9376 99.4306C60.9248 93.3961 53.4219 84.0721 47.1349 73.2126Z" stroke="#00D8FF" stroke-width="8.911"/>
</svg>
