<svg width="127" height="127" viewBox="0 0 127 127" fill="none" xmlns="http://www.w3.org/2000/svg">
<path d="M97.2344 0H29.7656C13.3265 0 0 13.3265 0 29.7656V97.2344C0 113.673 13.3265 127 29.7656 127H97.2344C113.673 127 127 113.673 127 97.2344V29.7656C127 13.3265 113.673 0 97.2344 0Z" fill="#CD6799"/>
<mask id="mask0_7_389" style="mask-type:luminance" maskUnits="userSpaceOnUse" x="13" y="26" width="101" height="75">
<path d="M13.8906 26.293H113.109V100.662H13.8906V26.293Z" fill="white"/>
</mask>
<g mask="url(#mask0_7_389)">
<path d="M99.2713 69.0373C95.8116 69.0552 92.8052 69.8886 90.2876 71.1199C89.3638 69.2908 88.4401 67.6607 88.2769 66.4651C88.0958 65.0706 87.8785 64.2193 88.0958 62.5529C88.3131 60.8865 89.2914 58.5142 89.2731 58.3331C89.2552 58.1515 89.0558 57.3007 87.0635 57.2824C85.0711 57.2645 83.3507 57.6629 83.1513 58.1883C82.9518 58.7131 82.5718 59.9087 82.3183 61.1405C81.974 62.9517 78.3332 69.4178 76.2506 72.8047C75.5804 71.4826 75.0009 70.3232 74.8739 69.3995C74.6928 68.005 74.4756 67.1537 74.6929 65.4873C74.9101 63.8209 75.8884 61.4481 75.8701 61.267C75.8522 61.0859 75.6528 60.2346 73.6605 60.2168C71.6682 60.1984 69.9472 60.5968 69.7483 61.1222C69.5488 61.6475 69.3316 62.8793 68.9148 64.0744C68.4986 65.27 63.6627 76.065 62.3947 78.854C61.8824 79.9827 61.345 81.0999 60.7829 82.2046C60.7829 82.2046 60.7645 82.2592 60.7104 82.3495C60.5337 82.696 60.3524 83.0401 60.1667 83.3819V83.4002C59.8954 83.8894 59.6051 84.3418 59.4603 84.3418C59.3516 84.3418 59.1527 83.0381 59.4965 81.2631C60.2213 77.5136 61.9417 71.6815 61.9239 71.4826C61.9239 71.3739 62.2498 70.3594 60.8007 69.8341C59.3879 69.3087 58.8808 70.1783 58.7538 70.1783C58.6273 70.1783 58.5366 70.4864 58.5366 70.4864C58.5366 70.4864 60.1126 63.9296 55.5302 63.9296C52.6683 63.9296 48.7198 67.0629 46.7642 69.8886C44.5404 71.0987 42.3184 72.3121 40.0982 73.529C39.0301 74.1268 37.9253 74.7245 36.8925 75.2861C36.82 75.2137 36.7476 75.1229 36.6752 75.0505C31.1328 69.1276 20.8815 64.9441 21.3161 56.9927C21.4793 54.0945 22.4755 46.4874 41.0041 37.2501C56.2545 29.7338 68.39 31.8164 70.4909 36.435C73.4973 43.0281 63.9886 55.2717 48.2312 57.0467C42.2175 57.717 39.0663 55.3987 38.2696 54.5296C37.4362 53.6237 37.3092 53.5696 37.0011 53.7507C36.4941 54.0221 36.82 54.8371 37.0011 55.3079C37.4724 56.5397 39.4101 58.7131 42.6883 59.7817C45.5865 60.7238 52.632 61.2492 61.1629 57.9526C70.7082 54.2577 78.1705 43.9876 75.9787 35.3848C73.7875 26.6546 59.2976 23.7747 45.5865 28.6469C37.4357 31.545 28.5973 36.1091 22.2398 42.0498C14.6868 49.1142 13.4917 55.2539 13.9809 57.8256C15.7375 66.9542 28.3254 72.895 33.3608 77.2963C33.1073 77.4412 32.8716 77.5682 32.6727 77.6768C30.155 78.9265 20.5556 83.9435 18.1644 89.2507C15.4478 95.2638 18.5995 99.5744 20.6821 100.154C27.1482 101.947 33.7954 98.7231 37.3638 93.398C40.9317 88.0729 40.4971 81.1544 38.8486 77.9849C38.8309 77.9447 38.8064 77.908 38.7761 77.8762C39.4285 77.4957 40.0982 77.0974 40.7506 76.7169C41.9492 76.0085 43.1629 75.3261 44.3909 74.67C43.7753 76.3547 43.3223 78.3649 43.1051 81.2631C42.8337 84.6683 44.2282 89.0875 46.0573 90.8263C46.8724 91.5868 47.8323 91.6051 48.4485 91.6051C50.5857 91.6051 51.5456 89.8301 52.6142 87.7291C53.9179 85.1569 55.0956 82.1684 55.0956 82.1684C55.0956 82.1684 53.6282 90.2468 57.6128 90.2468C59.0619 90.2468 60.5289 88.3632 61.1812 87.4032V87.4211C61.1812 87.4211 61.2174 87.367 61.2899 87.24C61.4347 87.0044 61.525 86.8595 61.525 86.8595V86.8233C62.105 85.8093 63.4087 83.5089 65.3469 79.687C67.8463 74.7608 70.2553 68.6027 70.2553 68.6027C70.2553 68.6027 70.4726 70.1059 71.2152 72.6052C71.6498 74.0727 72.5557 75.6845 73.28 77.2422C72.7005 78.0573 72.3384 78.5097 72.3384 78.5097L72.3562 78.5281C71.8855 79.1438 71.3784 79.814 70.8169 80.4658C68.8424 82.8208 66.488 85.5195 66.162 86.2984C65.7815 87.2221 65.8723 87.8919 66.5966 88.4356C67.122 88.8339 68.0635 88.888 69.0235 88.8339C70.7985 88.7069 72.0487 88.2724 72.6643 88.0005C73.6243 87.6567 74.7474 87.1314 75.7976 86.3525C77.7359 84.9217 78.9131 82.8749 78.8045 80.1761C78.7499 78.6908 78.2608 77.206 77.6635 75.811C77.8445 75.5575 78.0073 75.304 78.1883 75.0505C81.2497 70.5767 83.622 65.6684 83.622 65.6684C83.622 65.6684 83.8393 67.1715 84.582 69.6713C84.9441 70.9389 85.6868 72.3155 86.3392 73.656C83.4593 75.9926 81.6843 78.7092 81.0503 80.4842C79.9093 83.7807 80.7968 85.2655 82.481 85.6098C83.242 85.773 84.3285 85.4109 85.1257 85.0666C86.1397 84.7407 87.3353 84.1791 88.4763 83.3457C90.4141 81.9149 92.2799 79.9226 92.1712 77.2239C92.1167 75.9926 91.7907 74.7786 91.3378 73.6014C93.7831 72.5874 96.9347 72.0258 100.956 72.4966C109.577 73.5111 111.28 78.8902 110.953 81.1544C110.627 83.4181 108.816 84.6499 108.218 85.0304C107.621 85.4109 107.422 85.5374 107.476 85.8093C107.549 86.2076 107.838 86.1893 108.345 86.1168C109.052 85.9903 112.873 84.2877 113.036 80.122C113.308 74.797 108.237 68.9828 99.2713 69.0373ZM32.763 91.4603C29.9015 94.5752 25.9169 95.753 24.1959 94.7568C22.3485 93.6877 23.0728 89.0875 26.5871 85.7909C28.7238 83.7807 31.4771 81.9149 33.3062 80.7739C33.7229 80.5204 34.3386 80.1583 35.0812 79.7053C35.2082 79.6329 35.2807 79.5967 35.2807 79.5967L35.7152 79.3248C37.0011 84.0342 35.7693 88.1821 32.763 91.4603ZM53.592 77.2963C52.5958 79.7237 50.5132 85.9358 49.2452 85.592C48.1588 85.3018 47.4885 80.5928 49.0279 75.938C49.8068 73.6014 51.4548 70.8124 52.4148 69.7254C53.9725 67.9866 55.6929 67.4072 56.1097 68.1136C56.635 69.0373 54.2081 75.7748 53.592 77.2963ZM70.7807 85.5195C70.3639 85.7368 69.9656 85.8817 69.7845 85.773C69.6575 85.7006 69.9656 85.4109 69.9656 85.4109C69.9656 85.4109 72.1211 83.0922 72.9724 82.0419C73.461 81.4258 74.041 80.7015 74.6566 79.8864V80.122C74.6566 82.8932 71.9762 84.7585 70.7807 85.5195ZM84.0388 82.4944C83.7307 82.2771 83.7853 81.5528 84.8176 79.2886C85.216 78.4011 86.1581 76.9163 87.7699 75.4851C87.951 76.065 88.078 76.6261 88.0596 77.1514C88.0418 80.6474 85.5419 81.9511 84.0388 82.4944Z" fill="white"/>
</g>
</svg>
