<svg width="127" height="127" viewBox="0 0 127 127" fill="none" xmlns="http://www.w3.org/2000/svg">
<path d="M97.2344 0H29.7656C13.3265 0 0 13.3265 0 29.7656V97.2344C0 113.673 13.3265 127 29.7656 127H97.2344C113.673 127 127 113.673 127 97.2344V29.7656C127 13.3265 113.673 0 97.2344 0Z" fill="#007ACC"/>
<path d="M28.0845 63.9213L28.0443 69.1223H44.5742V116.092H56.2671V69.1223H72.7969V64.022C72.7969 61.1997 72.7369 58.8413 72.656 58.7808C72.5955 58.7004 62.5362 58.6597 50.3403 58.6801L28.1455 58.7406L28.0845 63.9213ZM102.477 58.5927C105.702 59.3994 108.161 60.8306 110.419 63.1687C111.588 64.4189 113.322 66.6969 113.463 67.2411C113.503 67.4024 107.98 71.1117 104.634 73.1878C104.513 73.2687 104.029 72.7443 103.484 71.9382C101.852 69.5594 100.138 68.531 97.5173 68.3499C93.6671 68.0875 91.1876 70.1036 91.208 73.4701C91.208 74.4578 91.3489 75.0422 91.7522 75.8489C92.5985 77.6026 94.1711 78.6508 99.1102 80.7875C108.202 84.6987 112.092 87.2789 114.511 90.9475C117.213 95.0398 117.817 101.571 115.983 106.43C113.967 111.711 108.968 115.299 101.932 116.489C99.7552 116.872 94.5943 116.811 92.2562 116.388C87.1559 115.481 82.318 112.961 79.3345 109.655C78.1652 108.365 75.8871 104.998 76.0285 104.756C76.0885 104.676 76.6129 104.353 77.1973 104.011C77.7618 103.688 79.899 102.458 81.9146 101.289L85.5634 99.1722L86.3294 100.301C87.398 101.934 89.736 104.172 91.1474 104.917C95.199 107.055 100.763 106.752 103.505 104.293C104.674 103.224 105.158 102.116 105.158 100.483C105.158 99.011 104.976 98.3661 104.21 97.2573C103.222 95.8464 101.207 94.6568 95.4813 92.1773C88.9299 89.355 86.1076 87.6013 83.5274 84.8192C82.0357 83.2069 80.6243 80.6263 80.0399 78.4692C79.5562 76.6754 79.4352 72.1798 79.8181 70.3655C81.1685 64.0359 85.9464 59.6211 92.8406 58.3105C95.0785 57.8873 100.279 58.0485 102.477 58.5927Z" fill="white"/>
</svg>
