<svg width="127" height="127" viewBox="0 0 127 127" fill="none" xmlns="http://www.w3.org/2000/svg">
<path d="M97.2344 0H29.7656C13.3265 0 0 13.3265 0 29.7656V97.2344C0 113.673 13.3265 127 29.7656 127H97.2344C113.673 127 127 113.673 127 97.2344V29.7656C127 13.3265 113.673 0 97.2344 0Z" fill="#F4F2ED"/>
<path d="M112.657 28.5762L66.1076 111.814C65.1461 113.533 62.6771 113.543 61.7018 111.833L14.2291 28.5837C13.1664 26.7203 14.7599 24.4631 16.8722 24.8406L63.4713 33.1701C63.7687 33.2231 64.0731 33.2224 64.3702 33.1681L109.995 24.8521C112.1 24.4686 113.701 26.7084 112.657 28.5762Z" fill="url(#paint0_linear_7_396)"/>
<path d="M85.6691 13.9155L51.2213 20.6648C50.946 20.7186 50.6964 20.8625 50.5118 21.0737C50.3273 21.2849 50.2182 21.5516 50.2018 21.8316L48.0825 57.6203C48.0709 57.8165 48.1053 58.0127 48.1827 58.1934C48.2602 58.374 48.3787 58.5341 48.5288 58.661C48.6789 58.7879 48.8566 58.878 49.0476 58.9243C49.2386 58.9705 49.4378 58.9716 49.6293 58.9275L59.2203 56.7144C60.1178 56.5076 60.9284 57.2979 60.7443 58.2002L57.8948 72.1534C57.7028 73.0925 58.5848 73.8952 59.5016 73.6169L65.4255 71.817C66.3437 71.5382 67.2263 72.3434 67.0318 73.2835L62.5035 95.2004C62.2202 96.5716 64.0438 97.3192 64.8044 96.1435L65.3124 95.3587L93.3823 39.3398C93.8526 38.4021 93.042 37.3326 92.0116 37.531L82.1399 39.4365C81.2122 39.6151 80.4229 38.7514 80.6843 37.844L87.1281 15.5069C87.39 14.5981 86.5978 13.7339 85.6691 13.9155Z" fill="url(#paint1_linear_7_396)"/>
<defs>
<linearGradient id="paint0_linear_7_396" x1="13.0702" y1="21.8656" x2="71.0045" y2="100.545" gradientUnits="userSpaceOnUse">
<stop stop-color="#41D1FF"/>
<stop offset="1" stop-color="#BD34FE"/>
</linearGradient>
<linearGradient id="paint1_linear_7_396" x1="60.7969" y1="15.7475" x2="71.2769" y2="87.6399" gradientUnits="userSpaceOnUse">
<stop stop-color="#FFEA83"/>
<stop offset="0.083" stop-color="#FFDD35"/>
<stop offset="1" stop-color="#FFA800"/>
</linearGradient>
</defs>
</svg>
