<svg width="127" height="127" viewBox="0 0 127 127" fill="none" xmlns="http://www.w3.org/2000/svg">
<path d="M97.2344 0H29.7656C13.3265 0 0 13.3265 0 29.7656V97.2344C0 113.673 13.3265 127 29.7656 127H97.2344C113.673 127 127 113.673 127 97.2344V29.7656C127 13.3265 113.673 0 97.2344 0Z" fill="#F4F2ED"/>
<path d="M103.228 88.9025L65.2015 110.412V93.659L88.894 80.6262L103.228 88.9025ZM105.829 86.547V41.5627L91.9137 49.5935V78.5068L105.829 86.547ZM23.8372 88.9025L61.8638 110.412V93.659L38.1709 80.6262L23.8372 88.9025ZM21.2362 86.547V41.5627L35.1516 49.5935V78.5068L21.2362 86.547ZM22.8639 38.6522L61.8638 16.5879V32.7858L36.8795 46.5286L36.6885 46.6378L22.8639 38.6522ZM104.201 38.6522L65.2015 16.5879V32.7858L90.1858 46.5286L90.3768 46.6378L104.201 38.6522Z" fill="#8ED6FB"/>
<path d="M61.8638 89.8479L38.4894 76.9966V51.5306L61.8638 65.0278V89.8479ZM65.2015 89.8479L88.576 76.9966V51.5306L65.2015 65.0278V89.8479ZM40.0719 48.5838L63.5372 35.6779L87.0024 48.5838L63.5372 62.1356L40.0719 48.5838Z" fill="#1C78C0"/>
</svg>
